<?xml version="1.0" encoding="iso-8859-1"?>
<!-- Generator: Adobe Illustrator 19.0.0, SVG Export Plug-In . SVG Version: 6.00 Build 0)  -->
<svg xmlns="http://www.w3.org/2000/svg" xmlns:xlink="http://www.w3.org/1999/xlink" version="1.1" id="Layer_1" x="0px" y="0px" viewBox="0 0 384 384" style="enable-background:new 0 0 384 384;" xml:space="preserve">
<g>
	<g>
		<g>
			<path d="M206.896,0.874c-3.958-1.688-8.458-0.885-11.563,2.042L85.479,106.665H10.667C4.771,106.665,0,111.436,0,117.332v149.333     c0,5.896,4.771,10.667,10.667,10.667h74.813l109.854,103.75c2.021,1.917,4.667,2.917,7.333,2.917     c1.417,0,2.854-0.281,4.229-0.875c3.896-1.677,6.438-5.531,6.438-9.792V10.665C213.333,6.405,210.792,2.551,206.896,0.874z      M192,348.582l-94.938-89.667c-1.979-1.875-4.604-2.917-7.333-2.917H21.333v-128h68.396c2.729,0,5.354-1.042,7.333-2.917     L192,35.415V348.582z"/>
			<path d="M314.021,65.634c-4.938-3.083-11.563-1.656-14.708,3.354c-3.146,4.979-1.646,11.563,3.333,14.708     c37.583,23.646,60.021,64.135,60.021,108.302c0,44.167-22.438,84.656-60.021,108.302c-4.979,3.146-6.479,9.729-3.333,14.708     c2.021,3.229,5.479,4.99,9.021,4.99c1.958,0,3.917-0.531,5.688-1.635C357.833,290.78,384,243.551,384,191.999     C384,140.447,357.833,93.218,314.021,65.634z"/>
			<path d="M272.75,140.77c-4.708-3.458-11.396-2.542-14.938,2.198c-3.521,4.719-2.521,11.406,2.187,14.927     c11.021,8.188,17.334,20.615,17.334,34.104c0,13.49-6.313,25.917-17.334,34.104c-4.708,3.521-5.708,10.208-2.187,14.927     c2.104,2.813,5.313,4.302,8.563,4.302c2.229,0,4.458-0.688,6.375-2.104c16.458-12.26,25.917-30.938,25.917-51.229     C298.667,171.707,289.208,153.03,272.75,140.77z"/>
		</g>
	</g>
</g>
<g>
</g>
<g>
</g>
<g>
</g>
<g>
</g>
<g>
</g>
<g>
</g>
<g>
</g>
<g>
</g>
<g>
</g>
<g>
</g>
<g>
</g>
<g>
</g>
<g>
</g>
<g>
</g>
<g>
</g>
</svg>
