<?xml version="1.0" encoding="iso-8859-1"?>
<!-- Generator: Adobe Illustrator 19.0.0, SVG Export Plug-In . SVG Version: 6.00 Build 0)  -->
<svg xmlns="http://www.w3.org/2000/svg" xmlns:xlink="http://www.w3.org/1999/xlink" version="1.1" id="Layer_1" x="0px" y="0px" viewBox="0 0 383.998 383.998" style="enable-background:new 0 0 383.998 383.998;" xml:space="preserve">
<g>
	<g>
		<path d="M292.228,0.873c-3.938-1.688-8.458-0.885-11.563,2.042l-109.854,103.75H95.999c-5.896,0-10.667,4.771-10.667,10.667    v149.333c0,5.896,4.771,10.667,10.667,10.667h74.813l109.854,103.75c2.021,1.917,4.667,2.917,7.333,2.917    c1.417,0,2.854-0.281,4.229-0.875c3.896-1.677,6.438-5.531,6.438-9.792V10.664C298.665,6.404,296.124,2.55,292.228,0.873z     M277.332,348.581l-94.938-89.667c-1.979-1.875-4.604-2.917-7.333-2.917h-68.396v-128h68.396c2.729,0,5.354-1.042,7.333-2.917    l94.938-89.667V348.581z"/>
	</g>
</g>
<g>
</g>
<g>
</g>
<g>
</g>
<g>
</g>
<g>
</g>
<g>
</g>
<g>
</g>
<g>
</g>
<g>
</g>
<g>
</g>
<g>
</g>
<g>
</g>
<g>
</g>
<g>
</g>
<g>
</g>
</svg>
