<?xml version="1.0" encoding="iso-8859-1"?>
<!-- Generator: Adobe Illustrator 19.0.0, SVG Export Plug-In . SVG Version: 6.00 Build 0)  -->
<svg xmlns="http://www.w3.org/2000/svg" xmlns:xlink="http://www.w3.org/1999/xlink" version="1.1" id="Layer_1" x="0px" y="0px" viewBox="0 0 511.995 511.995" style="enable-background:new 0 0 511.995 511.995;" xml:space="preserve">
<g>
	<g>
		<g>
			<path d="M511.487,252.737c-36.281-112.896-138.958-188.74-255.49-188.74S36.789,139.841,0.508,252.737     c-0.677,2.115-0.677,4.406,0,6.521c36.281,112.896,138.958,188.74,255.49,188.74s219.208-75.844,255.49-188.74     C512.164,257.143,512.164,254.852,511.487,252.737z M255.997,426.664c-106.104,0-199.76-68.438-234.104-170.667     c34.344-102.229,128-170.667,234.104-170.667s199.76,68.437,234.104,170.667C455.758,358.227,362.102,426.664,255.997,426.664z"/>
			<path d="M255.997,127.997c-70.583,0-128,57.417-128,128s57.417,128,128,128s128-57.417,128-128S326.581,127.997,255.997,127.997z      M255.997,362.664c-58.813,0-106.667-47.854-106.667-106.667s47.854-106.667,106.667-106.667s106.667,47.854,106.667,106.667     S314.81,362.664,255.997,362.664z"/>
		</g>
	</g>
</g>
<g>
</g>
<g>
</g>
<g>
</g>
<g>
</g>
<g>
</g>
<g>
</g>
<g>
</g>
<g>
</g>
<g>
</g>
<g>
</g>
<g>
</g>
<g>
</g>
<g>
</g>
<g>
</g>
<g>
</g>
</svg>
