<?xml version="1.0" encoding="iso-8859-1"?>
<!-- Generator: Adobe Illustrator 19.0.0, SVG Export Plug-In . SVG Version: 6.00 Build 0)  -->
<svg xmlns="http://www.w3.org/2000/svg" xmlns:xlink="http://www.w3.org/1999/xlink" version="1.1" id="Layer_1" x="0px" y="0px" viewBox="0 0 512 512" style="enable-background:new 0 0 512 512;" xml:space="preserve">
<g>
	<g>
		<g>
			<path d="M256,245.333c5.896,0,10.667-4.771,10.667-10.667v-160C266.667,68.771,261.896,64,256,64s-10.667,4.771-10.667,10.667     v160C245.333,240.563,250.104,245.333,256,245.333z"/>
			<path d="M256,0C114.844,0,0,114.844,0,256s114.844,256,256,256s256-114.844,256-256S397.156,0,256,0z M256,490.667     C126.604,490.667,21.333,385.396,21.333,256S126.604,21.333,256,21.333S490.667,126.604,490.667,256S385.396,490.667,256,490.667     z"/>
			<path d="M313.438,118.156c-5.417-2.281-11.688,0.292-13.948,5.74c-2.271,5.438,0.302,11.677,5.74,13.948     C353.083,157.802,384,204.177,384,256c0,70.583-57.417,128-128,128s-128-57.417-128-128c0-51.823,30.917-98.198,78.771-118.156     c5.438-2.271,8.01-8.51,5.74-13.948c-2.26-5.438-8.521-8-13.948-5.74C142.74,141.438,106.667,195.542,106.667,256     c0,82.344,66.99,149.333,149.333,149.333S405.333,338.344,405.333,256C405.333,195.542,369.26,141.438,313.438,118.156z"/>
		</g>
	</g>
</g>
<g>
</g>
<g>
</g>
<g>
</g>
<g>
</g>
<g>
</g>
<g>
</g>
<g>
</g>
<g>
</g>
<g>
</g>
<g>
</g>
<g>
</g>
<g>
</g>
<g>
</g>
<g>
</g>
<g>
</g>
</svg>
