<?xml version="1.0" encoding="iso-8859-1"?>
<!-- Generator: Adobe Illustrator 19.0.0, SVG Export Plug-In . SVG Version: 6.00 Build 0)  -->
<svg xmlns="http://www.w3.org/2000/svg" xmlns:xlink="http://www.w3.org/1999/xlink" version="1.1" id="Layer_1" x="0px" y="0px" viewBox="0 0 512 512" style="enable-background:new 0 0 512 512;" xml:space="preserve">
<g>
	<g>
		<g>
			<path d="M508.479,162.74l-106.667-96c-4.354-3.938-11.104-3.594-15.083,0.792c-3.938,4.375-3.583,11.125,0.792,15.063     L473.542,160H181.333c-5.896,0-10.667,4.771-10.667,10.667s4.771,10.667,10.667,10.667h292.208l-86.021,77.406     c-4.375,3.938-4.729,10.688-0.792,15.063c2.125,2.344,5.021,3.531,7.938,3.531c2.542,0,5.104-0.906,7.146-2.74l106.667-96     c2.229-2.021,3.521-4.906,3.521-7.927C512,167.646,510.708,164.761,508.479,162.74z"/>
			<path d="M330.667,330.667H38.458l86.021-77.406c4.375-3.938,4.729-10.688,0.792-15.063c-3.979-4.385-10.708-4.729-15.083-0.792     l-106.667,96C1.292,335.427,0,338.313,0,341.333s1.292,5.906,3.521,7.927l106.667,96c2.042,1.833,4.604,2.74,7.146,2.74     c2.917,0,5.813-1.188,7.938-3.531c3.938-4.375,3.583-11.125-0.792-15.063L38.458,352h292.208c5.896,0,10.667-4.771,10.667-10.667     S336.563,330.667,330.667,330.667z"/>
		</g>
	</g>
</g>
<g>
</g>
<g>
</g>
<g>
</g>
<g>
</g>
<g>
</g>
<g>
</g>
<g>
</g>
<g>
</g>
<g>
</g>
<g>
</g>
<g>
</g>
<g>
</g>
<g>
</g>
<g>
</g>
<g>
</g>
</svg>
