<?xml version="1.0" encoding="iso-8859-1"?>
<!-- Generator: Adobe Illustrator 19.0.0, SVG Export Plug-In . SVG Version: 6.00 Build 0)  -->
<svg xmlns="http://www.w3.org/2000/svg" xmlns:xlink="http://www.w3.org/1999/xlink" version="1.1" id="Layer_1" x="0px" y="0px" viewBox="0 0 512 512" style="enable-background:new 0 0 512 512;" xml:space="preserve">
<g>
	<g>
		<g>
			<path d="M373.333,384H138.667c-5.896,0-10.667,4.771-10.667,10.667s4.771,10.667,10.667,10.667h234.667     c5.896,0,10.667-4.771,10.667-10.667S379.229,384,373.333,384z"/>
			<path d="M256,192c5.896,0,10.667-4.771,10.667-10.667v-64c0-5.896-4.771-10.667-10.667-10.667s-10.667,4.771-10.667,10.667v64     C245.333,187.229,250.104,192,256,192z"/>
			<path d="M135.313,226.906l-45.25-45.26c-4.167-4.167-10.917-4.167-15.083,0c-4.167,4.167-4.167,10.917,0,15.083l45.25,45.26     c2.083,2.083,4.813,3.125,7.542,3.125c2.729,0,5.458-1.042,7.542-3.125C139.479,237.823,139.479,231.073,135.313,226.906z"/>
			<path d="M74.667,352h-64C4.771,352,0,356.771,0,362.667s4.771,10.667,10.667,10.667h64c5.896,0,10.667-4.771,10.667-10.667     S80.563,352,74.667,352z"/>
			<path d="M501.333,352h-64c-5.896,0-10.667,4.771-10.667,10.667s4.771,10.667,10.667,10.667h64     c5.896,0,10.667-4.771,10.667-10.667S507.229,352,501.333,352z"/>
			<path d="M437.021,181.646c-4.167-4.167-10.917-4.167-15.083,0l-45.25,45.26c-4.167,4.167-4.167,10.917,0,15.083     c2.083,2.083,4.813,3.125,7.542,3.125s5.458-1.042,7.542-3.125l45.25-45.26C441.188,192.563,441.188,185.813,437.021,181.646z"/>
		</g>
	</g>
</g>
<g>
</g>
<g>
</g>
<g>
</g>
<g>
</g>
<g>
</g>
<g>
</g>
<g>
</g>
<g>
</g>
<g>
</g>
<g>
</g>
<g>
</g>
<g>
</g>
<g>
</g>
<g>
</g>
<g>
</g>
</svg>
