<?xml version="1.0" encoding="iso-8859-1"?>
<!-- Generator: Adobe Illustrator 19.0.0, SVG Export Plug-In . SVG Version: 6.00 Build 0)  -->
<svg xmlns="http://www.w3.org/2000/svg" xmlns:xlink="http://www.w3.org/1999/xlink" version="1.1" id="Layer_1" x="0px" y="0px" viewBox="0 0 384 384" style="enable-background:new 0 0 384 384;" xml:space="preserve">
<g>
	<g>
		<path d="M373.333,128c5.896,0,10.667-4.771,10.667-10.667V10.667C384,4.771,379.229,0,373.333,0H266.667    C260.771,0,256,4.771,256,10.667c0,5.896,4.771,10.667,10.667,10.667h80.603L243.874,124.72    C229.453,113.572,211.6,106.667,192,106.667c-19.68,0-37.596,6.965-52.046,18.195L36.418,21.333h80.915    c5.896,0,10.667-4.771,10.667-10.667C128,4.771,123.229,0,117.333,0H10.667C4.771,0,0,4.771,0,10.667v106.667    C0,123.229,4.771,128,10.667,128c5.896,0,10.667-4.771,10.667-10.667V36.415l103.538,103.53    c-11.236,14.453-18.204,32.372-18.204,52.055c0,19.6,6.906,37.456,18.059,51.879L21.333,347.271v-80.604    c0-5.896-4.771-10.667-10.667-10.667C4.771,256,0,260.771,0,266.667v106.667C0,379.229,4.771,384,10.667,384h106.667    c5.896,0,10.667-4.771,10.667-10.667c0-5.896-4.771-10.667-10.667-10.667H36.104l103.674-103.674    c14.479,11.315,32.46,18.341,52.221,18.341c19.682,0,37.6-6.966,52.051-18.199l103.533,103.533h-80.917    c-5.896,0-10.667,4.771-10.667,10.667c0,5.896,4.771,10.667,10.667,10.667h106.667c5.896,0,10.667-4.771,10.667-10.667V266.667    c0-5.896-4.771-10.667-10.667-10.667c-5.896,0-10.667,4.771-10.667,10.667v80.917L259.133,244.049    c11.234-14.452,18.201-32.37,18.201-52.049c0-19.763-7.027-37.746-18.346-52.227l103.68-103.671v81.23    C362.667,123.229,367.438,128,373.333,128z M192,256c-35.292,0-64-28.708-64-64s28.708-64,64-64s64,28.708,64,64    S227.292,256,192,256z"/>
	</g>
</g>
<g>
</g>
<g>
</g>
<g>
</g>
<g>
</g>
<g>
</g>
<g>
</g>
<g>
</g>
<g>
</g>
<g>
</g>
<g>
</g>
<g>
</g>
<g>
</g>
<g>
</g>
<g>
</g>
<g>
</g>
</svg>
