<?xml version="1.0" encoding="iso-8859-1"?>
<!-- Generator: Adobe Illustrator 19.0.0, SVG Export Plug-In . SVG Version: 6.00 Build 0)  -->
<svg xmlns="http://www.w3.org/2000/svg" xmlns:xlink="http://www.w3.org/1999/xlink" version="1.1" id="Layer_1" x="0px" y="0px" viewBox="0 0 512 512" style="enable-background:new 0 0 512 512;" xml:space="preserve">
<g>
	<g>
		<path d="M508.875,248.458l-74.667-74.667c-4.167-4.167-10.917-4.167-15.083,0c-4.167,4.167-4.167,10.917,0,15.083l56.458,56.458    H340.255c-4.868-38.447-35.135-68.719-73.589-73.589V36.417l56.458,56.458c2.083,2.083,4.813,3.125,7.542,3.125    c2.729,0,5.458-1.042,7.542-3.125c4.167-4.167,4.167-10.917,0-15.083L263.542,3.125c-4.167-4.167-10.917-4.167-15.083,0    l-74.667,74.667c-4.167,4.167-4.167,10.917,0,15.083c4.167,4.167,10.917,4.167,15.083,0l56.458-56.458v135.328    c-38.453,4.87-68.72,35.142-73.589,73.589H36.417l56.458-56.458c4.167-4.167,4.167-10.917,0-15.083    c-4.167-4.167-10.917-4.167-15.083,0L3.125,248.458c-4.167,4.167-4.167,10.917,0,15.083l74.667,74.667    c2.083,2.083,4.813,3.125,7.542,3.125c2.729,0,5.458-1.042,7.542-3.125c4.167-4.167,4.167-10.917,0-15.083l-56.458-56.458h135.328    c4.868,38.447,35.135,68.719,73.589,73.589v135.328l-56.458-56.458c-4.167-4.167-10.917-4.167-15.083,0    c-4.167,4.167-4.167,10.917,0,15.083l74.667,74.667c2.083,2.083,4.813,3.125,7.542,3.125s5.458-1.042,7.542-3.125l74.667-74.667    c4.167-4.167,4.167-10.917,0-15.083c-4.167-4.167-10.917-4.167-15.083,0l-56.458,56.458V340.255    c38.453-4.87,68.72-35.142,73.589-73.589h135.328l-56.458,56.458c-4.167,4.167-4.167,10.917,0,15.083    c2.083,2.083,4.813,3.125,7.542,3.125s5.458-1.042,7.542-3.125l74.667-74.667C513.042,259.375,513.042,252.625,508.875,248.458z     M256,320c-35.292,0-64-28.708-64-64s28.708-64,64-64s64,28.708,64,64S291.292,320,256,320z"/>
	</g>
</g>
<g>
</g>
<g>
</g>
<g>
</g>
<g>
</g>
<g>
</g>
<g>
</g>
<g>
</g>
<g>
</g>
<g>
</g>
<g>
</g>
<g>
</g>
<g>
</g>
<g>
</g>
<g>
</g>
<g>
</g>
</svg>
