<?xml version="1.0" encoding="iso-8859-1"?>
<!-- Generator: Adobe Illustrator 19.0.0, SVG Export Plug-In . SVG Version: 6.00 Build 0)  -->
<svg xmlns="http://www.w3.org/2000/svg" xmlns:xlink="http://www.w3.org/1999/xlink" version="1.1" id="Layer_1" x="0px" y="0px" viewBox="0 0 512 512" style="enable-background:new 0 0 512 512;" xml:space="preserve">
<g>
	<g>
		<g>
			<path d="M508.875,248.458l-74.667-74.667c-4.167-4.167-10.917-4.167-15.083,0c-4.167,4.167-4.167,10.917,0,15.083l56.458,56.458     h-166.25c-5.896,0-10.667,4.771-10.667,10.667s4.771,10.667,10.667,10.667h166.25l-56.458,56.458     c-4.167,4.167-4.167,10.917,0,15.083c2.083,2.083,4.813,3.125,7.542,3.125s5.458-1.042,7.542-3.125l74.667-74.667     C513.042,259.375,513.042,252.625,508.875,248.458z"/>
			<path d="M323.125,419.125l-56.458,56.458v-166.25c0-5.896-4.771-10.667-10.667-10.667s-10.667,4.771-10.667,10.667v166.25     l-56.458-56.458c-4.167-4.167-10.917-4.167-15.083,0c-4.167,4.167-4.167,10.917,0,15.083l74.667,74.667     c2.083,2.083,4.813,3.125,7.542,3.125s5.458-1.042,7.542-3.125l74.667-74.667c4.167-4.167,4.167-10.917,0-15.083     C334.042,414.958,327.292,414.958,323.125,419.125z"/>
			<path d="M36.417,266.667h166.25c5.896,0,10.667-4.771,10.667-10.667s-4.771-10.667-10.667-10.667H36.417l56.458-56.458     c4.167-4.167,4.167-10.917,0-15.083c-4.167-4.167-10.917-4.167-15.083,0L3.125,248.458c-4.167,4.167-4.167,10.917,0,15.083     l74.667,74.667c2.083,2.083,4.813,3.125,7.542,3.125c2.729,0,5.458-1.042,7.542-3.125c4.167-4.167,4.167-10.917,0-15.083     L36.417,266.667z"/>
			<path d="M188.875,92.875l56.458-56.458v166.25c0,5.896,4.771,10.667,10.667,10.667s10.667-4.771,10.667-10.667V36.417     l56.458,56.458c2.083,2.083,4.813,3.125,7.542,3.125c2.729,0,5.458-1.042,7.542-3.125c4.167-4.167,4.167-10.917,0-15.083     L263.542,3.125c-4.167-4.167-10.917-4.167-15.083,0l-74.667,74.667c-4.167,4.167-4.167,10.917,0,15.083     C177.958,97.042,184.708,97.042,188.875,92.875z"/>
		</g>
	</g>
</g>
<g>
</g>
<g>
</g>
<g>
</g>
<g>
</g>
<g>
</g>
<g>
</g>
<g>
</g>
<g>
</g>
<g>
</g>
<g>
</g>
<g>
</g>
<g>
</g>
<g>
</g>
<g>
</g>
<g>
</g>
</svg>
