<?xml version="1.0" encoding="iso-8859-1"?>
<!-- Generator: Adobe Illustrator 19.0.0, SVG Export Plug-In . SVG Version: 6.00 Build 0)  -->
<svg xmlns="http://www.w3.org/2000/svg" xmlns:xlink="http://www.w3.org/1999/xlink" version="1.1" id="Layer_1" x="0px" y="0px" viewBox="0 0 512 512" style="enable-background:new 0 0 512 512;" xml:space="preserve">
<g>
	<g>
		<g>
			<path d="M256,0C114.833,0,0,114.844,0,256s114.833,256,256,256s256-114.844,256-256S397.167,0,256,0z M256,490.667     C126.604,490.667,21.333,385.396,21.333,256S126.604,21.333,256,21.333S490.667,126.604,490.667,256S385.396,490.667,256,490.667     z"/>
			<path d="M373.333,128h-74.667c-5.896,0-10.667,4.771-10.667,10.667c0,5.896,4.771,10.667,10.667,10.667h48.917L256,240.917     l-91.583-91.583h48.917c5.896,0,10.667-4.771,10.667-10.667c0-5.896-4.771-10.667-10.667-10.667h-74.667     c-5.896,0-10.667,4.771-10.667,10.667v74.667c0,5.896,4.771,10.667,10.667,10.667c5.896,0,10.667-4.771,10.667-10.667v-48.917     L240.917,256l-91.583,91.583v-48.917c0-5.896-4.771-10.667-10.667-10.667c-5.896,0-10.667,4.771-10.667,10.667v74.667     c0,5.896,4.771,10.667,10.667,10.667h74.667c5.896,0,10.667-4.771,10.667-10.667c0-5.896-4.771-10.667-10.667-10.667h-48.917     L256,271.083l91.583,91.583h-48.917c-5.896,0-10.667,4.771-10.667,10.667c0,5.896,4.771,10.667,10.667,10.667h74.667     c5.896,0,10.667-4.771,10.667-10.667v-74.667c0-5.896-4.771-10.667-10.667-10.667c-5.896,0-10.667,4.771-10.667,10.667v48.917     L271.083,256l91.583-91.583v48.917c0,5.896,4.771,10.667,10.667,10.667c5.896,0,10.667-4.771,10.667-10.667v-74.667     C384,132.771,379.229,128,373.333,128z"/>
		</g>
	</g>
</g>
<g>
</g>
<g>
</g>
<g>
</g>
<g>
</g>
<g>
</g>
<g>
</g>
<g>
</g>
<g>
</g>
<g>
</g>
<g>
</g>
<g>
</g>
<g>
</g>
<g>
</g>
<g>
</g>
<g>
</g>
</svg>
