<?xml version="1.0" encoding="iso-8859-1"?>
<!-- Generator: Adobe Illustrator 19.0.0, SVG Export Plug-In . SVG Version: 6.00 Build 0)  -->
<svg xmlns="http://www.w3.org/2000/svg" xmlns:xlink="http://www.w3.org/1999/xlink" version="1.1" id="Layer_1" x="0px" y="0px" viewBox="0 0 512 512" style="enable-background:new 0 0 512 512;" xml:space="preserve">
<g>
	<g>
		<path d="M438.542,208.958L264.125,3.76c-2.022-2.387-5.076-3.762-8.129-3.76c-3.051,0.001-6.101,1.376-8.121,3.76L73.458,208.958    C67.354,216.135,64,225.271,64,234.677v2.938c0,21.896,17.813,39.719,39.729,39.719c11.813,0,22.937-5.208,30.5-14.292    l79.104-94.917v301.208C213.333,492.865,232.479,512,256,512s42.667-19.135,42.667-42.667V168.125l79.104,94.917    c7.562,9.083,18.688,14.292,30.5,14.292c21.917,0,39.729-17.823,39.729-39.719v-2.938    C448,225.271,444.646,216.135,438.542,208.958z M426.667,237.615c0,10.135-8.25,18.385-18.396,18.385    c-5.458,0-10.604-2.417-14.125-6.625l-97.958-117.542c-2.875-3.438-7.583-4.75-11.813-3.198    c-4.229,1.531-7.042,5.542-7.042,10.031v330.667c0,11.76-9.563,21.333-21.333,21.333s-21.333-9.573-21.333-21.333V138.667    c0-4.49-2.813-8.5-7.042-10.031C226.438,128.208,225.208,128,224,128c-3.104,0-6.125,1.354-8.188,3.833l-97.958,117.542    c-3.521,4.208-8.667,6.625-14.125,6.625c-10.146,0-18.396-8.25-18.396-18.385v-2.938c0-4.354,1.563-8.583,4.375-11.906L256,27.135    l166.292,195.635c2.813,3.323,4.375,7.552,4.375,11.906V237.615z"/>
	</g>
</g>
<g>
</g>
<g>
</g>
<g>
</g>
<g>
</g>
<g>
</g>
<g>
</g>
<g>
</g>
<g>
</g>
<g>
</g>
<g>
</g>
<g>
</g>
<g>
</g>
<g>
</g>
<g>
</g>
<g>
</g>
</svg>
