<?xml version="1.0" encoding="iso-8859-1"?>
<!-- Generator: Adobe Illustrator 19.0.0, SVG Export Plug-In . SVG Version: 6.00 Build 0)  -->
<svg xmlns="http://www.w3.org/2000/svg" xmlns:xlink="http://www.w3.org/1999/xlink" version="1.1" id="Layer_1" x="0px" y="0px" viewBox="0 0 384 384" style="enable-background:new 0 0 384 384;" xml:space="preserve">
<g>
	<g>
		<path d="M383.999,40.833C383.999,18.312,365.686,0,343.166,0c-10.74,0-21.26,4.354-28.875,11.958L97.624,228.625l7.021-119.313    c0.687-11.708-3.531-23.333-11.583-31.875S73.655,64,61.916,64c-22.344,0-41.094,17.458-42.688,39.771L0.03,372.583    c-0.229,3.083,0.906,6.104,3.094,8.292c2.01,2,4.719,3.125,7.542,3.125c0.25,0,0.51,0,0.76-0.021l268.813-19.208    c22.292-1.583,39.76-20.333,39.76-42.688c0-11.75-4.896-23.083-13.438-31.146c-8.552-8.063-20.229-12.25-31.875-11.583    l-119.302,7.021L372.03,69.708C379.634,62.125,383.999,51.604,383.999,40.833z M356.957,54.625l-236.5,236.5    c-3.135,3.125-4,7.875-2.188,11.917c1.813,4.021,5.969,6.688,10.354,6.271l147.313-8.667c5.979-0.188,11.646,1.729,15.99,5.813    c4.344,4.104,6.74,9.646,6.74,15.625c0,11.208-8.75,20.604-19.938,21.396L22.186,361.813l18.313-256.521    c0.802-11.188,10.208-19.958,21.417-19.958c5.979,0,11.521,2.396,15.625,6.75c4.094,4.333,6.156,10.021,5.813,15.979    l-8.667,147.313c-0.26,4.417,2.24,8.542,6.281,10.354c3.99,1.771,8.781,0.938,11.906-2.188l236.49-236.5    c3.646-3.625,8.677-5.708,13.802-5.708c10.75,0,19.5,8.75,19.5,19.5C362.666,45.979,360.582,51,356.957,54.625z"/>
	</g>
</g>
<g>
</g>
<g>
</g>
<g>
</g>
<g>
</g>
<g>
</g>
<g>
</g>
<g>
</g>
<g>
</g>
<g>
</g>
<g>
</g>
<g>
</g>
<g>
</g>
<g>
</g>
<g>
</g>
<g>
</g>
</svg>
