<?xml version="1.0" encoding="iso-8859-1"?>
<!-- Generator: Adobe Illustrator 19.0.0, SVG Export Plug-In . SVG Version: 6.00 Build 0)  -->
<svg xmlns="http://www.w3.org/2000/svg" xmlns:xlink="http://www.w3.org/1999/xlink" version="1.1" id="Layer_1" x="0px" y="0px" viewBox="0 0 384.008 384.008" style="enable-background:new 0 0 384.008 384.008;" xml:space="preserve">
<g>
	<g>
		<path d="M380.88,3.133c-2.188-2.167-5.281-3.333-8.302-3.104L103.765,19.237c-22.292,1.583-39.76,20.333-39.76,42.688    c0,11.75,4.896,23.083,13.438,31.146c8.531,8.042,20.146,12.083,31.875,11.583l119.302-7.021L11.974,314.299    c-7.604,7.583-11.969,18.104-11.969,28.875c0,22.521,18.313,40.833,40.833,40.833c10.74,0,21.26-4.354,28.875-11.958    L286.38,155.383l-7.021,119.313c-0.688,11.708,3.531,23.333,11.583,31.875c8.052,8.542,19.406,13.438,31.146,13.438    c22.344,0,41.094-17.458,42.688-39.771l19.198-268.813C384.203,8.341,383.067,5.32,380.88,3.133z M343.505,278.716    c-0.802,11.188-10.208,19.958-21.417,19.958c-5.979,0-11.521-2.396-15.625-6.75c-4.094-4.333-6.156-10.021-5.813-15.979    l8.667-147.313c0.26-4.417-2.24-8.542-6.281-10.354c-4.01-1.792-8.781-0.958-11.906,2.188l-236.49,236.5    c-3.646,3.625-8.677,5.708-13.802,5.708c-10.75,0-19.5-8.75-19.5-19.5c0-5.146,2.083-10.167,5.708-13.792l236.5-236.5    c3.135-3.125,4-7.875,2.188-11.917c-1.729-3.833-5.552-6.292-9.729-6.292c-0.208,0-0.417,0-0.625,0.021l-147.313,8.667    c-5.885,0.354-11.625-1.708-15.99-5.813c-4.344-4.104-6.74-9.646-6.74-15.625c0-11.208,8.75-20.604,19.938-21.396l256.542-18.333    L343.505,278.716z"/>
	</g>
</g>
<g>
</g>
<g>
</g>
<g>
</g>
<g>
</g>
<g>
</g>
<g>
</g>
<g>
</g>
<g>
</g>
<g>
</g>
<g>
</g>
<g>
</g>
<g>
</g>
<g>
</g>
<g>
</g>
<g>
</g>
</svg>
