<?xml version="1.0" encoding="iso-8859-1"?>
<!-- Generator: Adobe Illustrator 19.0.0, SVG Export Plug-In . SVG Version: 6.00 Build 0)  -->
<svg xmlns="http://www.w3.org/2000/svg" xmlns:xlink="http://www.w3.org/1999/xlink" version="1.1" id="Layer_1" x="0px" y="0px" viewBox="0 0 384 384" style="enable-background:new 0 0 384 384;" xml:space="preserve">
<g>
	<g>
		<path d="M383.97,372.583L364.772,103.75C363.178,81.458,344.428,64,322.084,64c-11.74,0-23.094,4.896-31.146,13.438    c-8.052,8.542-12.271,20.167-11.583,31.875l7.021,119.313L69.699,11.958C62.095,4.354,51.574,0,40.834,0    C18.314,0,0.001,18.312,0.001,40.833c0,10.771,4.365,21.292,11.958,28.875l216.656,216.667l-119.302-7.021    c-11.563-0.542-23.333,3.542-31.875,11.583c-8.542,8.063-13.438,19.396-13.438,31.146c0,22.354,17.469,41.104,39.75,42.688    l268.823,19.208c0.25,0.021,0.51,0.021,0.76,0.021c2.823,0,5.531-1.125,7.542-3.125    C383.064,378.688,384.199,375.667,383.97,372.583z M105.262,343.479c-11.177-0.792-19.927-10.188-19.927-21.396    c0-5.979,2.396-11.521,6.74-15.625c4.031-3.792,9.198-5.854,14.688-5.854c0.427,0,0.865,0.021,1.302,0.042l147.313,8.667    c4.552,0.583,8.542-2.25,10.354-6.271c1.813-4.042,0.948-8.792-2.188-11.917l-236.51-236.5c-3.615-3.625-5.698-8.646-5.698-13.792    c0-10.75,8.75-19.5,19.5-19.5c5.125,0,10.156,2.083,13.792,5.708l236.5,236.5c3.125,3.125,7.885,3.979,11.906,2.188    c4.042-1.813,6.542-5.938,6.281-10.354l-8.667-147.313c-0.344-5.958,1.719-11.646,5.813-15.979    c4.104-4.354,9.646-6.75,15.625-6.75c11.208,0,20.615,8.771,21.417,19.938l18.313,256.542L105.262,343.479z"/>
	</g>
</g>
<g>
</g>
<g>
</g>
<g>
</g>
<g>
</g>
<g>
</g>
<g>
</g>
<g>
</g>
<g>
</g>
<g>
</g>
<g>
</g>
<g>
</g>
<g>
</g>
<g>
</g>
<g>
</g>
<g>
</g>
</svg>
