<?xml version="1.0" encoding="iso-8859-1"?>
<!-- Generator: Adobe Illustrator 19.0.0, SVG Export Plug-In . SVG Version: 6.00 Build 0)  -->
<svg xmlns="http://www.w3.org/2000/svg" xmlns:xlink="http://www.w3.org/1999/xlink" version="1.1" id="Layer_1" x="0px" y="0px" viewBox="0 0 512 512" style="enable-background:new 0 0 512 512;" xml:space="preserve">
<g>
	<g>
		<path d="M445.083,195.333l-181.333-192c-2.002-2.127-4.881-3.335-7.758-3.333c-2.872,0.002-5.744,1.21-7.742,3.333l-181.333,192    c-1.875,1.979-2.917,4.604-2.917,7.333v160c0,4.375,2.667,8.292,6.729,9.917c4.021,1.604,8.688,0.583,11.688-2.583l88.25-93.438    v224.771c0,5.896,4.771,10.667,10.667,10.667h149.333c5.896,0,10.667-4.771,10.667-10.667V276.563L429.583,370    c3,3.167,7.708,4.188,11.688,2.583c4.063-1.625,6.729-5.542,6.729-9.917v-160C448,199.938,446.958,197.313,445.083,195.333z     M426.667,335.833l-88.25-93.438c-2.979-3.167-7.646-4.125-11.688-2.583c-4.063,1.625-6.729,5.542-6.729,9.917v240.938H192    V249.729c0-4.375-2.667-8.292-6.729-9.917c-4-1.542-8.688-0.583-11.688,2.583l-88.25,93.438V206.917L256,26.208l170.667,180.708    V335.833z"/>
	</g>
</g>
<g>
</g>
<g>
</g>
<g>
</g>
<g>
</g>
<g>
</g>
<g>
</g>
<g>
</g>
<g>
</g>
<g>
</g>
<g>
</g>
<g>
</g>
<g>
</g>
<g>
</g>
<g>
</g>
<g>
</g>
</svg>
