<?xml version="1.0" encoding="iso-8859-1"?>
<!-- Generator: Adobe Illustrator 19.0.0, SVG Export Plug-In . SVG Version: 6.00 Build 0)  -->
<svg xmlns="http://www.w3.org/2000/svg" xmlns:xlink="http://www.w3.org/1999/xlink" version="1.1" id="Layer_1" x="0px" y="0px" viewBox="0 0 512 512" style="enable-background:new 0 0 512 512;" xml:space="preserve">
<g>
	<g>
		<path d="M501.333,170.667H276.563L370,82.417c3.167-3,4.188-7.625,2.583-11.688c-1.625-4.063-5.542-6.729-9.917-6.729h-160    c-2.729,0-5.354,1.042-7.333,2.917l-192,181.333C1.208,250.25,0,253.063,0,256s1.208,5.75,3.333,7.75l192,181.333    c1.979,1.875,4.604,2.917,7.333,2.917h160c4.375,0,8.292-2.667,9.917-6.729c1.604-4.063,0.583-8.688-2.583-11.688l-93.438-88.25    h224.771c5.896,0,10.667-4.771,10.667-10.667V181.333C512,175.438,507.229,170.667,501.333,170.667z M490.667,320H249.729    c-4.375,0-8.292,2.667-9.917,6.729c-1.604,4.063-0.583,8.688,2.583,11.688l93.438,88.25H206.917L26.208,256L206.917,85.333    h128.917l-93.438,88.25c-3.167,3-4.188,7.625-2.583,11.688c1.625,4.063,5.542,6.729,9.917,6.729h240.938V320z"/>
	</g>
</g>
<g>
</g>
<g>
</g>
<g>
</g>
<g>
</g>
<g>
</g>
<g>
</g>
<g>
</g>
<g>
</g>
<g>
</g>
<g>
</g>
<g>
</g>
<g>
</g>
<g>
</g>
<g>
</g>
<g>
</g>
</svg>
