<?xml version="1.0" encoding="iso-8859-1"?>
<!-- Generator: Adobe Illustrator 19.0.0, SVG Export Plug-In . SVG Version: 6.00 Build 0)  -->
<svg xmlns="http://www.w3.org/2000/svg" xmlns:xlink="http://www.w3.org/1999/xlink" version="1.1" id="Layer_1" x="0px" y="0px" viewBox="0 0 512 512" style="enable-background:new 0 0 512 512;" xml:space="preserve">
<g>
	<g>
		<path d="M465.875,215.583c-32.896-18.021-76.198-42.958-122.031-69.375C256.396,95.833,157.281,38.729,87.375,4.646    C81.01,1.563,74.281,0,67.385,0C41.99,0,21.333,20.521,21.333,45.729L21.354,256l-0.021,210.25    c0,25.229,20.656,45.75,46.052,45.75c6.927,0,13.656-1.583,20.021-4.688c69.948-34.104,169.177-91.271,256.719-141.708    c45.729-26.354,88.917-51.229,121.75-69.229c15.521-8.5,24.792-23.604,24.792-40.396    C490.667,239.188,481.396,224.083,465.875,215.583z M455.625,277.667c-33.031,18.104-76.323,43.042-122.156,69.458    c-87.24,50.271-186.125,107.229-255.417,141.021h-0.01c-16.146,7.917-35.365-4.813-35.375-21.896L42.687,256L42.667,45.729    c0-13.458,11.094-24.396,24.719-24.396c3.646,0,7.25,0.854,10.667,2.5c69.219,33.75,167.99,90.646,255.146,140.854    c45.938,26.479,89.333,51.479,122.427,69.604c8.583,4.708,13.708,12.813,13.708,21.688S464.208,272.958,455.625,277.667z"/>
	</g>
</g>
<g>
</g>
<g>
</g>
<g>
</g>
<g>
</g>
<g>
</g>
<g>
</g>
<g>
</g>
<g>
</g>
<g>
</g>
<g>
</g>
<g>
</g>
<g>
</g>
<g>
</g>
<g>
</g>
<g>
</g>
</svg>
