<?xml version="1.0" encoding="iso-8859-1"?>
<!-- Generator: Adobe Illustrator 19.0.0, SVG Export Plug-In . SVG Version: 6.00 Build 0)  -->
<svg xmlns="http://www.w3.org/2000/svg" xmlns:xlink="http://www.w3.org/1999/xlink" version="1.1" id="Layer_1" x="0px" y="0px" viewBox="0 0 512 512" style="enable-background:new 0 0 512 512;" xml:space="preserve">
<g>
	<g>
		<path d="M446.26,282.167L264.927,4.833c-1.97-3.022-5.451-4.835-8.932-4.833c-3.477,0.001-6.954,1.814-8.922,4.833L65.74,282.167    c-2.635,4.031-2.24,9.333,0.958,12.927c3.229,3.625,8.448,4.615,12.74,2.448L192,241.26v260.073    c0,5.896,4.771,10.667,10.667,10.667h106.667c5.896,0,10.667-4.771,10.667-10.667V241.26l112.563,56.281    c4.313,2.167,9.521,1.177,12.74-2.448C448.5,291.5,448.896,286.198,446.26,282.167z M314.104,214.458    c-3.313-1.656-7.24-1.49-10.375,0.469c-3.146,1.948-5.063,5.375-5.063,9.073v266.667h-85.333V224c0-3.698-1.917-7.125-5.063-9.073    c-3.156-1.958-7.073-2.135-10.375-0.469l-92.708,46.354L256,30.156l150.813,230.656L314.104,214.458z"/>
	</g>
</g>
<g>
</g>
<g>
</g>
<g>
</g>
<g>
</g>
<g>
</g>
<g>
</g>
<g>
</g>
<g>
</g>
<g>
</g>
<g>
</g>
<g>
</g>
<g>
</g>
<g>
</g>
<g>
</g>
<g>
</g>
</svg>
