<?xml version="1.0" encoding="iso-8859-1"?>
<!-- Generator: Adobe Illustrator 19.0.0, SVG Export Plug-In . SVG Version: 6.00 Build 0)  -->
<svg xmlns="http://www.w3.org/2000/svg" xmlns:xlink="http://www.w3.org/1999/xlink" version="1.1" id="Layer_1" x="0px" y="0px" viewBox="0 0 426.668 426.668" style="enable-background:new 0 0 426.668 426.668;" xml:space="preserve">
<g>
	<g>
		<path d="M423.54,333.793L222.727,132.991l121.75-37.458c4.604-1.427,7.688-5.771,7.521-10.604c-0.188-4.833-3.604-8.938-8.313-10    L13.019,0.262C9.394-0.54,5.706,0.523,3.123,3.127C0.54,5.71-0.544,9.45,0.269,13.023l74.667,330.667    c1.062,4.708,5.167,8.125,9.979,8.302c5.625,0.646,9.208-2.917,10.604-7.521l37.458-121.729L333.79,423.543    c2.083,2.083,4.813,3.125,7.542,3.125c2.729,0,5.458-1.042,7.542-3.125l74.667-74.667    C427.706,344.71,427.706,337.96,423.54,333.793z M341.331,400.918L135.54,195.127c-2.021-2.021-4.75-3.125-7.542-3.125    c-0.854,0-1.729,0.104-2.563,0.313c-3.646,0.906-6.542,3.646-7.625,7.219L86.915,299.918L24.79,24.793l275.125,62.125    l-100.396,30.885c-3.563,1.104-6.313,4-7.208,7.625c-0.896,3.635,0.167,7.469,2.813,10.115l205.792,205.792L341.331,400.918z"/>
	</g>
</g>
<g>
</g>
<g>
</g>
<g>
</g>
<g>
</g>
<g>
</g>
<g>
</g>
<g>
</g>
<g>
</g>
<g>
</g>
<g>
</g>
<g>
</g>
<g>
</g>
<g>
</g>
<g>
</g>
<g>
</g>
</svg>
