<?xml version="1.0" encoding="iso-8859-1"?>
<!-- Generator: Adobe Illustrator 19.0.0, SVG Export Plug-In . SVG Version: 6.00 Build 0)  -->
<svg xmlns="http://www.w3.org/2000/svg" xmlns:xlink="http://www.w3.org/1999/xlink" version="1.1" id="Layer_1" x="0px" y="0px" viewBox="0 0 512 512" style="enable-background:new 0 0 512 512;" xml:space="preserve">
<g>
	<g>
		<path d="M507.167,247.07L229.833,65.737c-4.021-2.635-9.323-2.229-12.927,0.958c-3.604,3.208-4.604,8.427-2.448,12.74    l56.281,112.563H10.667C4.771,191.997,0,196.768,0,202.664v106.667c0,5.896,4.771,10.667,10.667,10.667H270.74L214.458,432.56    c-2.156,4.313-1.156,9.531,2.448,12.74c2.01,1.781,4.542,2.698,7.094,2.698c2.021,0,4.052-0.573,5.833-1.74l277.333-181.333    c3.021-1.969,4.833-5.323,4.833-8.927C512,252.393,510.188,249.039,507.167,247.07z M251.188,406.81l46.354-92.708    c1.656-3.302,1.479-7.229-0.469-10.375c-1.948-3.146-5.375-5.063-9.073-5.063H21.333v-85.333H288c3.698,0,7.125-1.917,9.073-5.063    c1.948-3.146,2.125-7.073,0.469-10.375l-46.354-92.708l230.656,150.813L251.188,406.81z"/>
	</g>
</g>
<g>
</g>
<g>
</g>
<g>
</g>
<g>
</g>
<g>
</g>
<g>
</g>
<g>
</g>
<g>
</g>
<g>
</g>
<g>
</g>
<g>
</g>
<g>
</g>
<g>
</g>
<g>
</g>
<g>
</g>
</svg>
