<?xml version="1.0" encoding="iso-8859-1"?>
<!-- Generator: Adobe Illustrator 19.0.0, SVG Export Plug-In . SVG Version: 6.00 Build 0)  -->
<svg xmlns="http://www.w3.org/2000/svg" xmlns:xlink="http://www.w3.org/1999/xlink" version="1.1" id="Layer_1" x="0px" y="0px" viewBox="0 0 512 512" style="enable-background:new 0 0 512 512;" xml:space="preserve">
<g>
	<g>
		<g>
			<path d="M256,0C114.844,0,0,114.844,0,256s114.844,256,256,256s256-114.844,256-256S397.156,0,256,0z M256,490.667     C126.604,490.667,21.333,385.396,21.333,256S126.604,21.333,256,21.333S490.667,126.604,490.667,256S385.396,490.667,256,490.667     z"/>
			<path d="M419.531,245.938c-4.25-1.469-9.021-0.135-11.865,3.396L365,302.667c-3.677,4.604-2.927,11.313,1.667,15     c4.615,3.688,11.313,2.917,15-1.667l19.323-24.156c-16.104,65.083-75,113.49-144.99,113.49     c-55.448,0-106.042-30.521-132.031-79.656c-2.771-5.208-9.208-7.198-14.417-4.438c-5.208,2.75-7.198,9.208-4.438,14.417     c29.698,56.135,87.51,91.01,150.885,91.01c94.104,0,170.667-76.563,170.667-170.667     C426.667,251.469,423.802,247.438,419.531,245.938z"/>
			<path d="M147,209.333c3.677-4.604,2.927-11.313-1.667-15c-4.594-3.667-11.302-2.896-15,1.667l-19.323,24.156     c16.104-65.083,75-113.49,144.99-113.49c55.448,0,106.042,30.521,132.031,79.656c2.76,5.208,9.177,7.198,14.417,4.438     c5.208-2.75,7.198-9.208,4.438-14.417c-29.698-56.135-87.51-91.01-150.885-91.01c-94.104,0-170.667,76.563-170.667,170.667     c0,4.531,2.865,8.563,7.135,10.063c1.156,0.406,2.354,0.604,3.531,0.604c3.177,0,6.26-1.427,8.333-4L147,209.333z"/>
		</g>
	</g>
</g>
<g>
</g>
<g>
</g>
<g>
</g>
<g>
</g>
<g>
</g>
<g>
</g>
<g>
</g>
<g>
</g>
<g>
</g>
<g>
</g>
<g>
</g>
<g>
</g>
<g>
</g>
<g>
</g>
<g>
</g>
</svg>
