<?xml version="1.0" encoding="iso-8859-1"?>
<!-- Generator: Adobe Illustrator 19.0.0, SVG Export Plug-In . SVG Version: 6.00 Build 0)  -->
<svg xmlns="http://www.w3.org/2000/svg" xmlns:xlink="http://www.w3.org/1999/xlink" version="1.1" id="Layer_1" x="0px" y="0px" viewBox="0 0 512 512" style="enable-background:new 0 0 512 512;" xml:space="preserve">
<g>
	<g>
		<g>
			<path d="M341.333,128c-70.583,0-128,57.417-128,128s57.417,128,128,128s128-57.417,128-128S411.917,128,341.333,128z      M341.333,362.667c-58.813,0-106.667-47.854-106.667-106.667s47.854-106.667,106.667-106.667     C400.146,149.333,448,197.188,448,256S400.146,362.667,341.333,362.667z"/>
			<path d="M341.333,85.333H170.667C76.563,85.333,0,161.896,0,256s76.563,170.667,170.667,170.667h170.667     C435.438,426.667,512,350.104,512,256S435.438,85.333,341.333,85.333z M341.333,405.333H170.667     c-82.333,0-149.333-66.99-149.333-149.333s67-149.333,149.333-149.333h170.667c82.333,0,149.333,66.99,149.333,149.333     S423.667,405.333,341.333,405.333z"/>
		</g>
	</g>
</g>
<g>
</g>
<g>
</g>
<g>
</g>
<g>
</g>
<g>
</g>
<g>
</g>
<g>
</g>
<g>
</g>
<g>
</g>
<g>
</g>
<g>
</g>
<g>
</g>
<g>
</g>
<g>
</g>
<g>
</g>
</svg>
