<?xml version="1.0" encoding="iso-8859-1"?>
<!-- Generator: Adobe Illustrator 19.0.0, SVG Export Plug-In . SVG Version: 6.00 Build 0)  -->
<svg xmlns="http://www.w3.org/2000/svg" xmlns:xlink="http://www.w3.org/1999/xlink" version="1.1" id="Layer_1" x="0px" y="0px" viewBox="0 0 512 512" style="enable-background:new 0 0 512 512;" xml:space="preserve">
<g>
	<g>
		<g>
			<path d="M256,0C114.844,0,0,114.844,0,256s114.844,256,256,256s256-114.844,256-256S397.156,0,256,0z M256,490.667     C126.604,490.667,21.333,385.396,21.333,256S126.604,21.333,256,21.333S490.667,126.604,490.667,256S385.396,490.667,256,490.667     z"/>
			<path d="M160,277.333h192c4.042,0,7.729-2.281,9.542-5.896c1.802-3.615,1.417-7.938-1.01-11.167l-96-128     c-4.021-5.375-13.042-5.375-17.063,0l-96,128c-2.427,3.229-2.813,7.552-1.01,11.167C152.271,275.052,155.958,277.333,160,277.333     z M256,156.448L330.667,256H181.333L256,156.448z"/>
			<path d="M352,298.667H160c-5.896,0-10.667,4.771-10.667,10.667V352c0,5.896,4.771,10.667,10.667,10.667h192     c5.896,0,10.667-4.771,10.667-10.667v-42.667C362.667,303.438,357.896,298.667,352,298.667z M341.333,341.333H170.667V320     h170.667V341.333z"/>
		</g>
	</g>
</g>
<g>
</g>
<g>
</g>
<g>
</g>
<g>
</g>
<g>
</g>
<g>
</g>
<g>
</g>
<g>
</g>
<g>
</g>
<g>
</g>
<g>
</g>
<g>
</g>
<g>
</g>
<g>
</g>
<g>
</g>
</svg>
