<?xml version="1.0" encoding="iso-8859-1"?>
<!-- Generator: Adobe Illustrator 19.0.0, SVG Export Plug-In . SVG Version: 6.00 Build 0)  -->
<svg xmlns="http://www.w3.org/2000/svg" xmlns:xlink="http://www.w3.org/1999/xlink" version="1.1" id="Layer_1" x="0px" y="0px" viewBox="0 0 426.667 426.667" style="enable-background:new 0 0 426.667 426.667;" xml:space="preserve">
<g>
	<g>
		<g>
			<path d="M330.667,320H96c-5.896,0-10.667,4.771-10.667,10.667c0,5.896,4.771,10.667,10.667,10.667h234.667     c5.896,0,10.667-4.771,10.667-10.667C341.333,324.771,336.563,320,330.667,320z"/>
			<path d="M32,288H10.667C4.771,288,0,292.771,0,298.667c0,5.896,4.771,10.667,10.667,10.667H32     c5.896,0,10.667-4.771,10.667-10.667C42.667,292.771,37.896,288,32,288z"/>
			<path d="M416,288h-21.333c-5.896,0-10.667,4.771-10.667,10.667c0,5.896,4.771,10.667,10.667,10.667H416     c5.896,0,10.667-4.771,10.667-10.667C426.667,292.771,421.896,288,416,288z"/>
			<path d="M349.104,147.823l-15.083,15.083c-4.167,4.167-4.167,10.917,0,15.083c2.083,2.083,4.813,3.125,7.542,3.125     s5.458-1.042,7.542-3.125l15.083-15.083c4.167-4.167,4.167-10.917,0-15.083C360.021,143.656,353.271,143.656,349.104,147.823z"/>
			<path d="M213.333,128c5.896,0,10.667-4.771,10.667-10.667V96c0-5.896-4.771-10.667-10.667-10.667S202.667,90.104,202.667,96     v21.333C202.667,123.229,207.438,128,213.333,128z"/>
			<path d="M92.646,162.906l-15.083-15.083c-4.167-4.167-10.917-4.167-15.083,0c-4.167,4.167-4.167,10.917,0,15.083l15.083,15.083     c2.083,2.083,4.813,3.125,7.542,3.125c2.729,0,5.458-1.042,7.542-3.125C96.813,173.823,96.813,167.073,92.646,162.906z"/>
		</g>
	</g>
</g>
<g>
</g>
<g>
</g>
<g>
</g>
<g>
</g>
<g>
</g>
<g>
</g>
<g>
</g>
<g>
</g>
<g>
</g>
<g>
</g>
<g>
</g>
<g>
</g>
<g>
</g>
<g>
</g>
<g>
</g>
</svg>
