<?xml version="1.0" encoding="iso-8859-1"?>
<!-- Generator: Adobe Illustrator 19.0.0, SVG Export Plug-In . SVG Version: 6.00 Build 0)  -->
<svg xmlns="http://www.w3.org/2000/svg" xmlns:xlink="http://www.w3.org/1999/xlink" version="1.1" id="Layer_1" x="0px" y="0px" viewBox="0 0 512 512" style="enable-background:new 0 0 512 512;" xml:space="preserve">
<g>
	<g>
		<path d="M508.875,493.792l-96.697-96.697c45.552-33.126,80.952-80.707,99.311-137.835c0.677-2.115,0.677-4.406,0-6.521    C475.208,139.844,372.531,64,256,64c-49.965,0-97.332,14.027-138.061,38.855l-99.73-99.73c-4.167-4.167-10.917-4.167-15.083,0    s-4.167,10.917,0,15.083l96.697,96.697C54.27,148.031,18.87,195.612,0.51,252.74c-0.677,2.115-0.677,4.406,0,6.521    C36.792,372.156,139.469,448,256,448c49.965,0,97.332-14.027,138.061-38.855l99.73,99.73c2.083,2.083,4.813,3.125,7.542,3.125    c2.729,0,5.458-1.042,7.542-3.125C513.042,504.708,513.042,497.958,508.875,493.792z M256,426.667    c-106.104,0-199.76-68.438-234.104-170.667c17.596-52.376,50.827-95.786,93.258-125.763l43.195,43.195    C139.456,195.742,128,224.542,128,256c0,70.583,57.417,128,128,128c31.458,0,60.258-11.456,82.568-30.349l39.87,39.87    C341.994,414.691,300.115,426.667,256,426.667z M323.125,338.208c-18.392,15.048-41.565,24.458-67.125,24.458    c-58.813,0-106.667-47.854-106.667-106.667c0-25.56,9.41-48.733,24.458-67.125L323.125,338.208z M188.875,173.792    c18.392-15.048,41.565-24.458,67.125-24.458c58.813,0,106.667,47.854,106.667,106.667c0,25.56-9.41,48.733-24.458,67.125    L188.875,173.792z M353.651,338.568C372.544,316.258,384,287.458,384,256c0-70.583-57.417-128-128-128    c-31.458,0-60.258,11.456-82.568,30.349l-39.87-39.87C170.007,97.309,211.885,85.333,256,85.333    c106.104,0,199.76,68.437,234.104,170.667c-17.596,52.376-50.827,95.786-93.258,125.763L353.651,338.568z"/>
	</g>
</g>
<g>
</g>
<g>
</g>
<g>
</g>
<g>
</g>
<g>
</g>
<g>
</g>
<g>
</g>
<g>
</g>
<g>
</g>
<g>
</g>
<g>
</g>
<g>
</g>
<g>
</g>
<g>
</g>
<g>
</g>
</svg>
