<?xml version="1.0" encoding="iso-8859-1"?>
<!-- Generator: Adobe Illustrator 19.0.0, SVG Export Plug-In . SVG Version: 6.00 Build 0)  -->
<svg xmlns="http://www.w3.org/2000/svg" xmlns:xlink="http://www.w3.org/1999/xlink" version="1.1" id="Layer_1" x="0px" y="0px" viewBox="0 0 426.667 426.667" style="enable-background:new 0 0 426.667 426.667;" xml:space="preserve">
<g>
	<g>
		<g>
			<path d="M213.333,64C131,64,64,130.99,64,213.333s67,149.333,149.333,149.333s149.333-66.99,149.333-149.333     S295.667,64,213.333,64z M213.333,341.333c-70.583,0-128-57.417-128-128s57.417-128,128-128s128,57.417,128,128     S283.917,341.333,213.333,341.333z"/>
			<path d="M32,202.667H10.667C4.771,202.667,0,207.438,0,213.333S4.771,224,10.667,224H32c5.896,0,10.667-4.771,10.667-10.667     S37.896,202.667,32,202.667z"/>
			<path d="M416,202.667h-21.333c-5.896,0-10.667,4.771-10.667,10.667S388.771,224,394.667,224H416     c5.896,0,10.667-4.771,10.667-10.667S421.896,202.667,416,202.667z"/>
			<path d="M77.563,334.01l-15.083,15.083c-4.167,4.167-4.167,10.917,0,15.083c2.083,2.083,4.812,3.125,7.542,3.125     s5.458-1.042,7.542-3.125l15.083-15.083c4.167-4.167,4.167-10.917,0-15.083C88.479,329.844,81.729,329.844,77.563,334.01z"/>
			<path d="M349.104,62.49l-15.083,15.083c-4.167,4.167-4.167,10.917,0,15.083c2.083,2.083,4.813,3.125,7.542,3.125     s5.458-1.042,7.542-3.125l15.083-15.083c4.167-4.167,4.167-10.917,0-15.083S353.271,58.323,349.104,62.49z"/>
			<path d="M213.333,384c-5.896,0-10.667,4.771-10.667,10.667V416c0,5.896,4.771,10.667,10.667,10.667S224,421.896,224,416v-21.333     C224,388.771,219.229,384,213.333,384z"/>
			<path d="M213.333,42.667C219.229,42.667,224,37.896,224,32V10.667C224,4.771,219.229,0,213.333,0s-10.667,4.771-10.667,10.667V32     C202.667,37.896,207.438,42.667,213.333,42.667z"/>
			<path d="M349.104,334.01c-4.167-4.167-10.917-4.167-15.083,0c-4.167,4.167-4.167,10.917,0,15.083l15.083,15.083     c2.083,2.083,4.813,3.125,7.542,3.125c2.729,0,5.458-1.042,7.542-3.125c4.167-4.167,4.167-10.917,0-15.083L349.104,334.01z"/>
			<path d="M77.563,92.656c2.083,2.083,4.813,3.125,7.542,3.125c2.729,0,5.458-1.042,7.542-3.125c4.167-4.167,4.167-10.917,0-15.083     L77.563,62.49c-4.167-4.167-10.917-4.167-15.083,0c-4.167,4.167-4.167,10.917,0,15.083L77.563,92.656z"/>
		</g>
	</g>
</g>
<g>
</g>
<g>
</g>
<g>
</g>
<g>
</g>
<g>
</g>
<g>
</g>
<g>
</g>
<g>
</g>
<g>
</g>
<g>
</g>
<g>
</g>
<g>
</g>
<g>
</g>
<g>
</g>
<g>
</g>
</svg>
