<?xml version="1.0" encoding="iso-8859-1"?>
<!-- Generator: Adobe Illustrator 19.0.0, SVG Export Plug-In . SVG Version: 6.00 Build 0)  -->
<svg xmlns="http://www.w3.org/2000/svg" xmlns:xlink="http://www.w3.org/1999/xlink" version="1.1" id="Layer_1" x="0px" y="0px" viewBox="0 0 512 512" style="enable-background:new 0 0 512 512;" xml:space="preserve">
<g>
	<g>
		<g>
			<path d="M256,106.667c-5.896,0-10.667,4.771-10.667,10.667v213.333c0,5.896,4.771,10.667,10.667,10.667     s10.667-4.771,10.667-10.667V117.333C266.667,111.438,261.896,106.667,256,106.667z"/>
			<circle cx="256" cy="394.667" r="10.667"/>
			<path d="M496.375,139.958L372.042,15.625C361.969,5.552,348.573,0,334.323,0H177.677c-14.25,0-27.646,5.552-37.719,15.625     L15.625,139.958C5.552,150.031,0,163.427,0,177.677v156.646c0,14.25,5.552,27.646,15.625,37.719l124.333,124.333     C150.031,506.448,163.427,512,177.677,512h156.646c14.25,0,27.646-5.552,37.719-15.625l124.333-124.333     C506.448,361.969,512,348.573,512,334.323V177.677C512,163.427,506.448,150.031,496.375,139.958z M490.667,334.323     c0,8.552-3.333,16.583-9.375,22.635L356.958,481.292c-6.052,6.042-14.083,9.375-22.635,9.375H177.677     c-8.552,0-16.583-3.333-22.635-9.375L30.708,356.958c-6.042-6.052-9.375-14.083-9.375-22.635V177.677     c0-8.552,3.333-16.583,9.375-22.635L155.042,30.708c6.052-6.042,14.083-9.375,22.635-9.375h156.646     c8.552,0,16.583,3.333,22.635,9.375l124.333,124.333c6.042,6.052,9.375,14.083,9.375,22.635V334.323z"/>
		</g>
	</g>
</g>
<g>
</g>
<g>
</g>
<g>
</g>
<g>
</g>
<g>
</g>
<g>
</g>
<g>
</g>
<g>
</g>
<g>
</g>
<g>
</g>
<g>
</g>
<g>
</g>
<g>
</g>
<g>
</g>
<g>
</g>
</svg>
