<?xml version="1.0" encoding="iso-8859-1"?>
<!-- Generator: Adobe Illustrator 19.0.0, SVG Export Plug-In . SVG Version: 6.00 Build 0)  -->
<svg xmlns="http://www.w3.org/2000/svg" xmlns:xlink="http://www.w3.org/1999/xlink" version="1.1" id="Layer_1" x="0px" y="0px" viewBox="0 0 384 384" style="enable-background:new 0 0 384 384;" xml:space="preserve">
<g>
	<g>
		<path d="M373.333,128c5.896,0,10.667-4.771,10.667-10.667V10.667C384,4.771,379.229,0,373.333,0H266.667    C260.771,0,256,4.771,256,10.667c0,5.896,4.771,10.667,10.667,10.667h80.917L192,176.917L36.417,21.333h80.917    c5.896,0,10.667-4.771,10.667-10.667C128,4.771,123.229,0,117.333,0H10.667C4.771,0,0,4.771,0,10.667v106.667    C0,123.229,4.771,128,10.667,128c5.896,0,10.667-4.771,10.667-10.667V36.417L176.917,192L21.333,347.583v-80.917    c0-5.896-4.771-10.667-10.667-10.667C4.771,256,0,260.771,0,266.667v106.667C0,379.229,4.771,384,10.667,384h106.667    c5.896,0,10.667-4.771,10.667-10.667c0-5.896-4.771-10.667-10.667-10.667H36.417L192,207.083l155.583,155.583h-80.917    c-5.896,0-10.667,4.771-10.667,10.667c0,5.896,4.771,10.667,10.667,10.667h106.667c5.896,0,10.667-4.771,10.667-10.667V266.667    c0-5.896-4.771-10.667-10.667-10.667c-5.896,0-10.667,4.771-10.667,10.667v80.917L207.083,192L362.667,36.417v80.917    C362.667,123.229,367.438,128,373.333,128z"/>
	</g>
</g>
<g>
</g>
<g>
</g>
<g>
</g>
<g>
</g>
<g>
</g>
<g>
</g>
<g>
</g>
<g>
</g>
<g>
</g>
<g>
</g>
<g>
</g>
<g>
</g>
<g>
</g>
<g>
</g>
<g>
</g>
</svg>
