<?xml version="1.0" encoding="iso-8859-1"?>
<!-- Generator: Adobe Illustrator 19.0.0, SVG Export Plug-In . SVG Version: 6.00 Build 0)  -->
<svg xmlns="http://www.w3.org/2000/svg" xmlns:xlink="http://www.w3.org/1999/xlink" version="1.1" id="Layer_1" x="0px" y="0px" viewBox="0 0 512 512" style="enable-background:new 0 0 512 512;" xml:space="preserve">
<g>
	<g>
		<g>
			<path d="M256,0C114.833,0,0,114.844,0,256s114.833,256,256,256s256-114.844,256-256S397.167,0,256,0z M256,490.667     C126.604,490.667,21.333,385.396,21.333,256S126.604,21.333,256,21.333S490.667,126.604,490.667,256S385.396,490.667,256,490.667     z"/>
			<path d="M423.542,248.458l-53.333-53.333c-4.167-4.167-10.917-4.167-15.083,0c-4.167,4.167-4.167,10.917,0,15.083l35.125,35.125     H266.667V121.75l35.125,35.125c2.083,2.083,4.813,3.125,7.542,3.125c2.729,0,5.458-1.042,7.542-3.125     c4.167-4.167,4.167-10.917,0-15.083l-53.333-53.333c-4.167-4.167-10.917-4.167-15.083,0l-53.333,53.333     c-4.167,4.167-4.167,10.917,0,15.083s10.917,4.167,15.083,0l35.125-35.125v123.583H121.75l35.125-35.125     c4.167-4.167,4.167-10.917,0-15.083s-10.917-4.167-15.083,0l-53.333,53.333c-4.167,4.167-4.167,10.917,0,15.083l53.333,53.333     c2.083,2.083,4.813,3.125,7.542,3.125c2.729,0,5.458-1.042,7.542-3.125c4.167-4.167,4.167-10.917,0-15.083l-35.125-35.125     h123.583V390.25l-35.125-35.125c-4.167-4.167-10.917-4.167-15.083,0c-4.167,4.167-4.167,10.917,0,15.083l53.333,53.333     c2.083,2.083,4.813,3.125,7.542,3.125s5.458-1.042,7.542-3.125l53.333-53.333c4.167-4.167,4.167-10.917,0-15.083     c-4.167-4.167-10.917-4.167-15.083,0l-35.125,35.125V266.667H390.25l-35.125,35.125c-4.167,4.167-4.167,10.917,0,15.083     c2.083,2.083,4.813,3.125,7.542,3.125s5.458-1.042,7.542-3.125l53.333-53.333C427.708,259.375,427.708,252.625,423.542,248.458z"/>
		</g>
	</g>
</g>
<g>
</g>
<g>
</g>
<g>
</g>
<g>
</g>
<g>
</g>
<g>
</g>
<g>
</g>
<g>
</g>
<g>
</g>
<g>
</g>
<g>
</g>
<g>
</g>
<g>
</g>
<g>
</g>
<g>
</g>
</svg>
