<?xml version="1.0" encoding="iso-8859-1"?>
<!-- Generator: Adobe Illustrator 19.0.0, SVG Export Plug-In . SVG Version: 6.00 Build 0)  -->
<svg xmlns="http://www.w3.org/2000/svg" xmlns:xlink="http://www.w3.org/1999/xlink" version="1.1" id="Layer_1" x="0px" y="0px" viewBox="0 0 512 512" style="enable-background:new 0 0 512 512;" xml:space="preserve">
<g>
	<g>
		<path d="M408.271,234.667c-11.813,0-22.938,5.208-30.5,14.292l-79.104,94.917V42.667C298.667,19.135,279.521,0,256,0    s-42.667,19.135-42.667,42.667v301.208l-79.104-94.917c-7.563-9.083-18.688-14.292-30.5-14.292    C81.813,234.667,64,252.49,64,274.385v2.938c0,9.406,3.354,18.542,9.458,25.719L247.875,508.24c2.021,2.385,5,3.76,8.125,3.76    s6.104-1.375,8.125-3.76l174.417-205.198c6.104-7.177,9.458-16.313,9.458-25.719v-2.938    C448,252.49,430.188,234.667,408.271,234.667z M426.667,277.323c0,4.354-1.563,8.583-4.375,11.906L256,484.865L89.708,289.229    c-2.813-3.323-4.375-7.552-4.375-11.906v-2.938c0-10.135,8.25-18.385,18.396-18.385c5.458,0,10.604,2.417,14.125,6.625    l97.958,117.542c2.854,3.448,7.542,4.698,11.813,3.198c4.229-1.531,7.042-5.542,7.042-10.031V42.667    c0-11.76,9.563-21.333,21.333-21.333s21.333,9.573,21.333,21.333v330.667c0,4.49,2.813,8.5,7.042,10.031    c4.229,1.5,8.938,0.25,11.813-3.198l97.958-117.542c3.521-4.208,8.667-6.625,14.125-6.625c10.146,0,18.396,8.25,18.396,18.385    V277.323z"/>
	</g>
</g>
<g>
</g>
<g>
</g>
<g>
</g>
<g>
</g>
<g>
</g>
<g>
</g>
<g>
</g>
<g>
</g>
<g>
</g>
<g>
</g>
<g>
</g>
<g>
</g>
<g>
</g>
<g>
</g>
<g>
</g>
</svg>
