<?xml version="1.0" encoding="iso-8859-1"?>
<!-- Generator: Adobe Illustrator 19.0.0, SVG Export Plug-In . SVG Version: 6.00 Build 0)  -->
<svg xmlns="http://www.w3.org/2000/svg" xmlns:xlink="http://www.w3.org/1999/xlink" version="1.1" id="Layer_1" x="0px" y="0px" viewBox="0 0 512 512" style="enable-background:new 0 0 512 512;" xml:space="preserve">
<g>
	<g>
		<path d="M508.667,248.25l-192-181.333c-1.979-1.875-4.604-2.917-7.333-2.917h-160c-4.375,0-8.292,2.667-9.917,6.729    c-1.604,4.063-0.583,8.688,2.583,11.688l93.438,88.25H10.667C4.771,170.667,0,175.438,0,181.333v149.333    c0,5.896,4.771,10.667,10.667,10.667h224.771L142,429.583c-3.167,3-4.188,7.625-2.583,11.688c1.625,4.063,5.542,6.729,9.917,6.729    h160c2.729,0,5.354-1.042,7.333-2.917l192-181.333c2.125-2,3.333-4.813,3.333-7.75S510.792,250.25,508.667,248.25z     M305.083,426.667H176.167l93.438-88.25c3.167-3,4.188-7.625,2.583-11.688c-1.625-4.063-5.542-6.729-9.917-6.729H21.333V192    h240.938c4.375,0,8.292-2.667,9.917-6.729c1.604-4.063,0.583-8.688-2.583-11.688l-93.438-88.25h128.917L485.792,256    L305.083,426.667z"/>
	</g>
</g>
<g>
</g>
<g>
</g>
<g>
</g>
<g>
</g>
<g>
</g>
<g>
</g>
<g>
</g>
<g>
</g>
<g>
</g>
<g>
</g>
<g>
</g>
<g>
</g>
<g>
</g>
<g>
</g>
<g>
</g>
</svg>
