<?xml version="1.0" encoding="iso-8859-1"?>
<!-- Generator: Adobe Illustrator 19.0.0, SVG Export Plug-In . SVG Version: 6.00 Build 0)  -->
<svg xmlns="http://www.w3.org/2000/svg" xmlns:xlink="http://www.w3.org/1999/xlink" version="1.1" id="Layer_1" x="0px" y="0px" viewBox="0 0 512 512" style="enable-background:new 0 0 512 512;" xml:space="preserve">
<g>
	<g>
		<path d="M441.271,139.417c-3.979-1.563-8.688-0.583-11.688,2.583l-88.25,93.438V10.667C341.333,4.771,336.563,0,330.667,0H181.333    c-5.896,0-10.667,4.771-10.667,10.667v224.771L82.417,142c-2.979-3.167-7.667-4.146-11.688-2.583    c-4.063,1.625-6.729,5.542-6.729,9.917v160c0,2.729,1.042,5.354,2.917,7.333l181.333,192c2,2.125,4.813,3.333,7.75,3.333    s5.75-1.208,7.75-3.333l181.333-192c1.875-1.979,2.917-4.604,2.917-7.333v-160C448,144.958,445.333,141.042,441.271,139.417z     M426.667,305.083L256,485.792L85.333,305.083V176.167l88.25,93.438c3,3.188,7.688,4.167,11.688,2.583    c4.063-1.625,6.729-5.542,6.729-9.917V21.333h128v240.938c0,4.375,2.667,8.292,6.729,9.917c4.042,1.583,8.708,0.604,11.688-2.583    l88.25-93.438V305.083z"/>
	</g>
</g>
<g>
</g>
<g>
</g>
<g>
</g>
<g>
</g>
<g>
</g>
<g>
</g>
<g>
</g>
<g>
</g>
<g>
</g>
<g>
</g>
<g>
</g>
<g>
</g>
<g>
</g>
<g>
</g>
<g>
</g>
</svg>
