<?xml version="1.0" encoding="iso-8859-1"?>
<!-- Generator: Adobe Illustrator 19.0.0, SVG Export Plug-In . SVG Version: 6.00 Build 0)  -->
<svg xmlns="http://www.w3.org/2000/svg" xmlns:xlink="http://www.w3.org/1999/xlink" version="1.1" id="Layer_1" x="0px" y="0px" viewBox="0 0 512 512" style="enable-background:new 0 0 512 512;" xml:space="preserve">
<g>
	<g>
		<path d="M490.667,45.729C490.667,20.521,470.01,0,444.615,0c-6.896,0-13.625,1.563-19.99,4.646l-0.031,0.021    c-69.958,34.104-169.187,91.271-256.729,141.708c-45.729,26.354-88.917,51.229-121.74,69.229    c-15.521,8.5-24.792,23.604-24.792,40.396s9.271,31.896,24.792,40.396c32.896,18.021,76.188,42.958,122.021,69.375    c87.448,50.375,186.563,107.479,256.438,141.542c6.365,3.104,13.104,4.688,20.031,4.688c25.396,0,46.052-20.521,46.052-45.75    l-0.021-210.271L490.667,45.729z M469.333,466.25c0,17.083-19.188,29.813-35.385,21.896    c-69.229-33.75-168.01-90.667-255.156-140.875c-45.938-26.458-89.323-51.458-122.417-69.583    c-8.583-4.708-13.708-12.813-13.708-21.688s5.125-16.979,13.708-21.688c33.031-18.104,76.313-43.042,122.135-69.438    c87.25-50.271,186.135-107.25,255.437-141.042c16.281-7.917,35.385,4.833,35.385,21.896l-0.021,210.25L469.333,466.25z"/>
	</g>
</g>
<g>
</g>
<g>
</g>
<g>
</g>
<g>
</g>
<g>
</g>
<g>
</g>
<g>
</g>
<g>
</g>
<g>
</g>
<g>
</g>
<g>
</g>
<g>
</g>
<g>
</g>
<g>
</g>
<g>
</g>
</svg>
