<?xml version="1.0" encoding="iso-8859-1"?>
<!-- Generator: Adobe Illustrator 19.0.0, SVG Export Plug-In . SVG Version: 6.00 Build 0)  -->
<svg xmlns="http://www.w3.org/2000/svg" xmlns:xlink="http://www.w3.org/1999/xlink" version="1.1" id="Layer_1" x="0px" y="0px" viewBox="0 0 426.668 426.668" style="enable-background:new 0 0 426.668 426.668;" xml:space="preserve">
<g>
	<g>
		<path d="M423.543,109.792L316.876,3.126c-4.167-4.167-10.917-4.167-15.083,0L128.001,176.917l-67.125-67.125    c-2.854-2.844-7.094-3.854-10.917-2.573c-3.833,1.271-6.615,4.604-7.188,8.604L0.105,414.49c-0.469,3.323,0.646,6.677,3.021,9.052    c2.01,2.01,4.729,3.125,7.542,3.125c0.5,0,1-0.031,1.51-0.104l298.667-42.667c4-0.573,7.333-3.354,8.604-7.188    c1.281-3.833,0.281-8.063-2.573-10.917l-67.125-67.125l173.792-173.792C427.709,120.709,427.709,113.959,423.543,109.792z     M227.126,291.126c-4.167,4.167-4.167,10.917,0,15.083l59.583,59.583L23.241,403.428l37.635-263.469l59.583,59.583    c4.167,4.167,10.917,4.167,15.083,0L309.334,25.751l91.583,91.583L227.126,291.126z"/>
	</g>
</g>
<g>
</g>
<g>
</g>
<g>
</g>
<g>
</g>
<g>
</g>
<g>
</g>
<g>
</g>
<g>
</g>
<g>
</g>
<g>
</g>
<g>
</g>
<g>
</g>
<g>
</g>
<g>
</g>
<g>
</g>
</svg>
