<?xml version="1.0" encoding="iso-8859-1"?>
<!-- Generator: Adobe Illustrator 19.0.0, SVG Export Plug-In . SVG Version: 6.00 Build 0)  -->
<svg xmlns="http://www.w3.org/2000/svg" xmlns:xlink="http://www.w3.org/1999/xlink" version="1.1" id="Layer_1" x="0px" y="0px" viewBox="0 0 426.671 426.671" style="enable-background:new 0 0 426.671 426.671;" xml:space="preserve">
<g>
	<g>
		<path d="M423.543,3.129c-2.365-2.375-5.667-3.5-9.052-3.021L115.825,42.775c-4,0.573-7.333,3.354-8.604,7.188    c-1.281,3.833-0.281,8.063,2.573,10.917l67.125,67.125L3.127,301.796c-4.167,4.167-4.167,10.917,0,15.083l106.667,106.667    c2.083,2.083,4.813,3.125,7.542,3.125s5.458-1.042,7.542-3.125l173.792-173.792l67.125,67.125    c2.844,2.854,7.073,3.865,10.917,2.573c3.833-1.271,6.615-4.604,7.188-8.604l42.667-298.667    C427.033,8.859,425.918,5.504,423.543,3.129z M365.793,286.713l-59.583-59.583c-4.167-4.167-10.917-4.167-15.083,0    L117.335,400.921l-91.583-91.583l173.792-173.792c4.167-4.167,4.167-10.917,0-15.083L139.96,60.879l263.469-37.635    L365.793,286.713z"/>
	</g>
</g>
<g>
</g>
<g>
</g>
<g>
</g>
<g>
</g>
<g>
</g>
<g>
</g>
<g>
</g>
<g>
</g>
<g>
</g>
<g>
</g>
<g>
</g>
<g>
</g>
<g>
</g>
<g>
</g>
<g>
</g>
</svg>
