<?xml version="1.0" encoding="iso-8859-1"?>
<!-- Generator: Adobe Illustrator 19.0.0, SVG Export Plug-In . SVG Version: 6.00 Build 0)  -->
<svg xmlns="http://www.w3.org/2000/svg" xmlns:xlink="http://www.w3.org/1999/xlink" version="1.1" id="Layer_1" x="0px" y="0px" viewBox="0 0 426.671 426.671" style="enable-background:new 0 0 426.671 426.671;" xml:space="preserve">
<g>
	<g>
		<path d="M426.563,414.492l-42.667-298.667c-0.583-4-3.354-7.333-7.188-8.604c-3.813-1.271-8.063-0.271-10.917,2.573    l-67.125,67.125L124.875,3.127c-4.167-4.167-10.917-4.167-15.083,0L3.125,109.794c-4.167,4.167-4.167,10.917,0,15.083    l173.792,173.792l-67.125,67.125c-2.854,2.854-3.854,7.083-2.583,10.917c1.292,3.833,4.625,6.615,8.625,7.188L414.5,426.565    c0.5,0.073,1,0.104,1.5,0.104c2.813,0,5.521-1.115,7.542-3.125C425.917,421.169,427.042,417.815,426.563,414.492z     M139.958,365.794l59.583-59.583c4.167-4.167,4.167-10.917,0-15.083L25.75,117.336l91.583-91.583l173.792,173.792    c4.167,4.167,10.917,4.167,15.083,0l59.583-59.583l37.646,263.469L139.958,365.794z"/>
	</g>
</g>
<g>
</g>
<g>
</g>
<g>
</g>
<g>
</g>
<g>
</g>
<g>
</g>
<g>
</g>
<g>
</g>
<g>
</g>
<g>
</g>
<g>
</g>
<g>
</g>
<g>
</g>
<g>
</g>
<g>
</g>
</svg>
