<?xml version="1.0" encoding="iso-8859-1"?>
<!-- Generator: Adobe Illustrator 19.0.0, SVG Export Plug-In . SVG Version: 6.00 Build 0)  -->
<svg xmlns="http://www.w3.org/2000/svg" xmlns:xlink="http://www.w3.org/1999/xlink" version="1.1" id="Layer_1" x="0px" y="0px" viewBox="0 0 426.667 426.667" style="enable-background:new 0 0 426.667 426.667;" xml:space="preserve">
<g>
	<g>
		<path d="M423.539,77.792L348.872,3.125c-4.167-4.167-10.917-4.167-15.083,0L132.976,203.927L95.518,82.198    c-1.417-4.625-5.083-8.198-10.604-7.521c-4.813,0.177-8.917,3.594-9.979,8.302L0.268,413.646    c-0.813,3.573,0.271,7.313,2.854,9.896c2.021,2.021,4.75,3.125,7.542,3.125c0.792,0,1.563-0.083,2.354-0.26l330.667-74.667    c4.708-1.063,8.125-5.167,8.313-10c0.167-4.833-2.917-9.177-7.521-10.604l-121.75-37.458L423.539,92.875    C427.706,88.708,427.706,81.958,423.539,77.792z M195.122,291.125c-2.646,2.646-3.708,6.479-2.813,10.115    c0.896,3.625,3.646,6.521,7.208,7.625l100.396,30.885L24.789,401.875L86.914,126.75l30.896,100.385    c1.083,3.573,3.979,6.313,7.625,7.219c3.542,0.896,7.479-0.177,10.104-2.813L341.331,25.75l59.583,59.583L195.122,291.125z"/>
	</g>
</g>
<g>
</g>
<g>
</g>
<g>
</g>
<g>
</g>
<g>
</g>
<g>
</g>
<g>
</g>
<g>
</g>
<g>
</g>
<g>
</g>
<g>
</g>
<g>
</g>
<g>
</g>
<g>
</g>
<g>
</g>
</svg>
