<?xml version="1.0" encoding="iso-8859-1"?>
<!-- Generator: Adobe Illustrator 19.0.0, SVG Export Plug-In . SVG Version: 6.00 Build 0)  -->
<svg xmlns="http://www.w3.org/2000/svg" xmlns:xlink="http://www.w3.org/1999/xlink" version="1.1" id="Layer_1" x="0px" y="0px" viewBox="0 0 512 512" style="enable-background:new 0 0 512 512;" xml:space="preserve">
<g>
	<g>
		<path d="M501.333,191.997H241.26l56.281-112.563c2.156-4.313,1.156-9.531-2.448-12.74c-3.604-3.188-8.885-3.594-12.927-0.958    L4.833,247.07C1.813,249.039,0,252.393,0,255.997c0,3.604,1.813,6.958,4.833,8.927l277.333,181.333    c1.781,1.167,3.813,1.74,5.833,1.74c2.552,0,5.083-0.917,7.094-2.698c3.604-3.208,4.604-8.427,2.448-12.74L241.26,319.997h260.073    c5.896,0,10.667-4.771,10.667-10.667V202.664C512,196.768,507.229,191.997,501.333,191.997z M490.667,298.664H224    c-3.698,0-7.125,1.917-9.073,5.063c-1.948,3.146-2.125,7.073-0.469,10.375l46.354,92.708L30.156,255.997l230.656-150.813    l-46.354,92.708c-1.656,3.302-1.479,7.229,0.469,10.375c1.948,3.146,5.375,5.063,9.073,5.063h266.667V298.664z"/>
	</g>
</g>
<g>
</g>
<g>
</g>
<g>
</g>
<g>
</g>
<g>
</g>
<g>
</g>
<g>
</g>
<g>
</g>
<g>
</g>
<g>
</g>
<g>
</g>
<g>
</g>
<g>
</g>
<g>
</g>
<g>
</g>
</svg>
