<?xml version="1.0" encoding="iso-8859-1"?>
<!-- Generator: Adobe Illustrator 19.0.0, SVG Export Plug-In . SVG Version: 6.00 Build 0)  -->
<svg xmlns="http://www.w3.org/2000/svg" xmlns:xlink="http://www.w3.org/1999/xlink" version="1.1" id="Layer_1" x="0px" y="0px" viewBox="0 0 426.667 426.667" style="enable-background:new 0 0 426.667 426.667;" xml:space="preserve">
<g>
	<g>
		<path d="M423.542,3.142c-2.583-2.594-6.313-3.708-9.896-2.865L82.979,74.942c-4.708,1.062-8.125,5.166-8.302,10    c-0.188,4.833,2.896,9.177,7.521,10.604l121.729,37.457L3.125,333.796c-4.167,4.167-4.167,10.916,0,15.083l74.667,74.664    c2.083,2.083,4.813,3.125,7.542,3.125s5.458-1.042,7.542-3.125l200.802-200.794l37.458,121.724    c1.427,4.614,5.792,7.708,10.604,7.521c4.833-0.177,8.938-3.594,10-8.302l74.667-330.653    C427.208,9.465,426.135,5.726,423.542,3.142z M339.75,299.922l-30.885-100.381c-1.104-3.573-4-6.312-7.625-7.218    c-3.635-0.906-7.469,0.177-10.115,2.812L85.333,400.918L25.75,341.337l205.792-205.783c2.646-2.646,3.708-6.479,2.813-10.114    c-0.906-3.625-3.646-6.521-7.219-7.625L126.75,86.931l275.125-62.123L339.75,299.922z"/>
	</g>
</g>
<g>
</g>
<g>
</g>
<g>
</g>
<g>
</g>
<g>
</g>
<g>
</g>
<g>
</g>
<g>
</g>
<g>
</g>
<g>
</g>
<g>
</g>
<g>
</g>
<g>
</g>
<g>
</g>
<g>
</g>
</svg>
