<?xml version="1.0" encoding="iso-8859-1"?>
<!-- Generator: Adobe Illustrator 19.0.0, SVG Export Plug-In . SVG Version: 6.00 Build 0)  -->
<svg xmlns="http://www.w3.org/2000/svg" xmlns:xlink="http://www.w3.org/1999/xlink" version="1.1" id="Layer_1" x="0px" y="0px" viewBox="0 0 426.667 426.667" style="enable-background:new 0 0 426.667 426.667;" xml:space="preserve">
<g>
	<g>
		<path d="M426.399,413.646L351.732,82.979c-1.063-4.708-5.167-8.125-9.979-8.302c-5.583-0.354-9.188,2.906-10.604,7.521    L293.69,203.927L92.878,3.125c-4.167-4.167-10.917-4.167-15.083,0L3.128,77.792c-4.167,4.167-4.167,10.917,0,15.083    L203.94,293.677L82.19,331.135c-4.604,1.427-7.688,5.771-7.521,10.604c0.188,4.833,3.604,8.938,8.313,10l330.667,74.667    c0.792,0.177,1.563,0.26,2.354,0.26c2.792,0,5.521-1.104,7.542-3.125C426.128,420.958,427.211,417.219,426.399,413.646z     M126.753,339.75l100.396-30.885c3.563-1.104,6.313-4,7.208-7.625c0.896-3.635-0.167-7.469-2.813-10.115L25.753,85.333    L85.336,25.75l205.792,205.792c2.646,2.635,6.542,3.708,10.104,2.813c3.646-0.906,6.542-3.646,7.625-7.219l30.896-100.385    l62.125,275.125L126.753,339.75z"/>
	</g>
</g>
<g>
</g>
<g>
</g>
<g>
</g>
<g>
</g>
<g>
</g>
<g>
</g>
<g>
</g>
<g>
</g>
<g>
</g>
<g>
</g>
<g>
</g>
<g>
</g>
<g>
</g>
<g>
</g>
<g>
</g>
</svg>
