<?xml version="1.0" encoding="iso-8859-1"?>
<!-- Generator: Adobe Illustrator 19.0.0, SVG Export Plug-In . SVG Version: 6.00 Build 0)  -->
<svg xmlns="http://www.w3.org/2000/svg" xmlns:xlink="http://www.w3.org/1999/xlink" version="1.1" id="Layer_1" x="0px" y="0px" viewBox="0 0 512 512" style="enable-background:new 0 0 512 512;" xml:space="preserve">
<g>
	<g>
		<path d="M445.302,216.906c-3.229-3.604-8.427-4.594-12.74-2.448L320,270.74V10.667C320,4.771,315.229,0,309.333,0H202.667    C196.771,0,192,4.771,192,10.667V270.74L79.437,214.458c-4.292-2.146-9.5-1.156-12.74,2.448    c-3.198,3.594-3.594,8.896-0.958,12.927l181.333,277.333c1.969,3.021,5.323,4.833,8.927,4.833c3.604,0,6.958-1.813,8.927-4.833    L446.26,229.833C448.896,225.802,448.5,220.5,445.302,216.906z M256,481.844L105.187,251.188l92.708,46.354    c3.302,1.646,7.229,1.49,10.375-0.469c3.146-1.948,5.063-5.375,5.063-9.073V21.333h85.333V288c0,3.698,1.917,7.125,5.063,9.073    c3.125,1.938,7.063,2.104,10.375,0.469l92.708-46.354L256,481.844z"/>
	</g>
</g>
<g>
</g>
<g>
</g>
<g>
</g>
<g>
</g>
<g>
</g>
<g>
</g>
<g>
</g>
<g>
</g>
<g>
</g>
<g>
</g>
<g>
</g>
<g>
</g>
<g>
</g>
<g>
</g>
<g>
</g>
</svg>
