<?xml version="1.0" encoding="iso-8859-1"?>
<!-- Generator: Adobe Illustrator 19.0.0, SVG Export Plug-In . SVG Version: 6.00 Build 0)  -->
<svg xmlns="http://www.w3.org/2000/svg" xmlns:xlink="http://www.w3.org/1999/xlink" version="1.1" id="Layer_1" x="0px" y="0px" viewBox="0 0 511.996 511.996" style="enable-background:new 0 0 511.996 511.996;" xml:space="preserve">
<g>
	<g>
		<path d="M509.04,344.623l-245.333-256c-2.025-2.108-4.876-3.296-7.725-3.292c-2.838,0.004-5.675,1.192-7.692,3.292l-245.333,256    c-4,4.188-3.938,10.813,0.167,14.917l64,64c2.021,2.021,4.563,3,7.688,3.125c2.896-0.042,5.625-1.25,7.604-3.333L255.998,239.54    l173.583,183.792c1.979,2.083,4.708,3.292,7.604,3.333c0.042,0,0.104,0,0.146,0c2.833,0,5.542-1.125,7.542-3.125l64-64    C512.977,355.436,513.04,348.811,509.04,344.623z M437.54,400.686L263.748,216.665c-2-2.125-4.813-3.333-7.75-3.333    c-2.938,0-5.75,1.208-7.75,3.333L74.456,400.686l-48.875-48.854l230.417-240.417l230.417,240.417L437.54,400.686z"/>
	</g>
</g>
<g>
</g>
<g>
</g>
<g>
</g>
<g>
</g>
<g>
</g>
<g>
</g>
<g>
</g>
<g>
</g>
<g>
</g>
<g>
</g>
<g>
</g>
<g>
</g>
<g>
</g>
<g>
</g>
<g>
</g>
</svg>
